<svg height="512" viewBox="0 0 512 512" width="512" xmlns="http://www.w3.org/2000/svg"><g id="flat"><path d="m472 296h-432l24-256h384z" fill="#fbb540"/><path d="m40 296h432v48h-432z" fill="#d18d28"/><path d="m168 344h176l8 128h-192z" fill="#6e3f0d"/><path d="m200 344h112v128h-112z" fill="#834b10"/><path d="m240 200h-160l16-128h128z" fill="#3a97ff"/><circle cx="160" cy="128" fill="#007af6" r="24"/><path d="m126 152h68a14 14 0 0 1 14 14v34h-96v-34a14 14 0 0 1 14-14z" fill="#007af6"/><path d="m136 200v-24a8 8 0 0 1 16 0v24z" fill="#006ddc"/><path d="m168 200v-24a8 8 0 0 1 16 0v24z" fill="#006ddc"/><g fill="#ea9d2d"><path d="m320 72h48v16h-48z"/><path d="m272 104h48v16h-48z"/><path d="m336 104h80v16h-80z"/><path d="m272 136h88v16h-88z"/><path d="m376 136h40v16h-40z"/><path d="m272 168h32v16h-32z"/><path d="m320 168h40v16h-40z"/><path d="m352 216h64v16h-64z"/><path d="m376 168h16v16h-16z"/></g><path d="m80 232h160v32h-160z" fill="#d18d28"/><path d="m80 232h32v32h-32z" fill="#ea9d2d"/><path d="m144 232h32v32h-32z" fill="#ea9d2d"/><path d="m208 232h32v32h-32z" fill="#ea9d2d"/></g></svg>