<?xml version="1.0" encoding="iso-8859-1"?>
<!-- Generator: Adobe Illustrator 19.0.0, SVG Export Plug-In . SVG Version: 6.00 Build 0)  -->
<svg version="1.1" id="Capa_1" xmlns="http://www.w3.org/2000/svg" xmlns:xlink="http://www.w3.org/1999/xlink" x="0px" y="0px"
	 viewBox="0 0 464 464" style="enable-background:new 0 0 464 464;" xml:space="preserve">
<path style="fill:#FDBD40;" d="M112,64h240c17.673,0,32,14.327,32,32v16l0,0H80l0,0V96C80,78.327,94.327,64,112,64z"/>
<path style="fill:#FCF05A;" d="M321.424,464H142.576c-17.12,0.018-31.221-13.442-32-30.544L96,112h272l-14.608,321.456
	C352.614,450.546,338.531,464.001,321.424,464z"/>
<path style="fill:#F49E21;" d="M168,16v48h32V32h64v32h32V16c0-8.837-7.163-16-16-16h-96C175.163,0,168,7.163,168,16z"/>
<g>
	<path style="fill:#FDBD40;" d="M216,160h32v240h-32V160z"/>
	<path style="fill:#FDBD40;" d="M280,160h32v240h-32V160z"/>
	<path style="fill:#FDBD40;" d="M152,160h32v240h-32V160z"/>
</g>
<g>
</g>
<g>
</g>
<g>
</g>
<g>
</g>
<g>
</g>
<g>
</g>
<g>
</g>
<g>
</g>
<g>
</g>
<g>
</g>
<g>
</g>
<g>
</g>
<g>
</g>
<g>
</g>
<g>
</g>
</svg>
