<svg id="Filled" height="512" viewBox="0 0 512 512" width="512" xmlns="http://www.w3.org/2000/svg"><rect fill="#f7cc38" height="288" rx="32" width="384" x="24" y="88"/><path d="m24 392a32 32 0 0 0 32 32h320a32 32 0 0 0 32-32v-224a32 32 0 0 0 -32-32h-176v-64a32 32 0 0 0 -32-32h-112a32 32 0 0 0 -32 32z" fill="#fbe36a"/><circle cx="384" cy="368" fill="#3cb4d7" r="104"/><path d="m416 260.666v-141.166a40.045 40.045 0 0 0 -40-40h-168v-7.5a40.045 40.045 0 0 0 -40-40h-112a40.045 40.045 0 0 0 -40 40v320a40.045 40.045 0 0 0 40 40h236.141a111.981 111.981 0 1 0 123.859-171.334zm-40-165.166a24.028 24.028 0 0 1 24 24v16.522a39.788 39.788 0 0 0 -24-8.022h-168v-32.5zm-320 320.5a24.027 24.027 0 0 1 -24-24v-320a24.027 24.027 0 0 1 24-24h112a24.027 24.027 0 0 1 24 24v64a8 8 0 0 0 8 8h176a24.028 24.028 0 0 1 24 24v89.148a112 112 0 0 0 -128 110.852 111.334 111.334 0 0 0 10.821 48zm328 48a96 96 0 1 1 96-96 96.108 96.108 0 0 1 -96 96z"/><path d="m440 360h-48v-48a8 8 0 0 0 -16 0v48h-48a8 8 0 0 0 0 16h48v48a8 8 0 0 0 16 0v-48h48a8 8 0 0 0 0-16z"/></svg>